<svg width="1024" height="1024" viewBox="0 0 1024 1024" fill="none" xmlns="http://www.w3.org/2000/svg">
<path d="M625.567 875.859C551.067 889.741 475.067 895.861 410.567 866.86C346.066 837.859 317.788 810.854 298.067 785.86C278.345 760.867 278.066 746.868 304.066 725.359C330.066 703.851 350.066 722.859 350.066 722.859L386.217 750.359C420.417 784.56 475.866 784.56 510.066 750.359C544.267 716.159 544.267 660.71 510.066 626.51C475.866 592.309 420.417 592.309 386.217 626.51L356.416 655.031C355.385 656.018 354.472 657.123 353.626 658.273C337.19 680.625 305.889 686.204 282.676 670.547C258.867 654.488 257.507 623.668 273.566 599.859C273.566 599.859 290.973 572.86 310.067 551.359C369.566 484.36 490.567 487.361 479.567 484.36C468.567 481.359 238.567 423.36 238.567 423.36C238.567 423.36 191.334 408.36 197.567 374.86C202.662 347.479 226.819 342.478 235.473 341.564C237.523 341.348 239.566 341.679 241.53 342.305L559.511 443.666C564.707 445.322 568.424 438.648 564.28 435.103L299.383 208.486C298.507 207.737 297.693 206.922 297.105 205.93C294.226 201.073 287.22 184.15 310.067 159.86C337.345 130.86 358.427 155.675 358.427 155.675L647.965 418.125C655.378 424.843 666.577 416.266 662.023 407.359L551.067 190.36C551.067 190.36 534.067 162.681 570.567 142.86C607.067 123.038 625.567 159.86 625.567 159.86C625.567 159.86 756.566 423.36 805.567 572.86C828.555 642.998 841.067 684.36 805.567 761.86C770.066 839.36 700.067 861.978 625.567 875.859Z" stroke="black" style="stroke:black;stroke-opacity:1;" stroke-width="20" stroke-linecap="round"/>
</svg>
