<svg width="1024" height="1024" viewBox="0 0 1024 1024" fill="none" xmlns="http://www.w3.org/2000/svg">
<path d="M305.263 488.801L254.705 544.381C251.356 548.063 249.5 552.861 249.5 557.839V658.301C249.5 681.908 260.615 704.137 279.5 718.301L381.5 794.801L464.642 851.404C521.927 890.404 596.082 894.525 657.336 862.114L702.079 838.44C770.123 802.436 804.739 724.585 785.893 649.946L733.581 442.768C730.882 432.077 726.303 421.951 720.058 412.864L684.03 360.436C667.573 336.489 638.623 324.389 610.02 329.502L567.5 337.104M305.263 488.801L358.763 632.801M305.263 488.801L209.647 248.48C206.622 240.877 206.001 232.53 207.868 224.564L209.905 215.877C212.66 204.124 220.604 194.259 231.499 189.062C249.008 180.71 269.889 184.394 283.483 198.233L284.337 199.103M407 440.103L362.909 348.603L284.337 199.103M502 395.103L451.069 308.301L372.147 171.603M372.147 171.603C372.147 171.603 355.169 129.836 333 122.103C311.5 114.603 285.522 125.103 277.5 145.603C268.5 168.603 284.337 199.103 284.337 199.103M372.147 171.603C372.147 171.603 363.385 143.199 372.147 129.103C380.33 115.937 391.562 111.511 407 110.103C412.748 109.579 419.739 111.134 425.762 113.039C434.948 115.944 442.096 122.876 446.964 131.191L567.5 337.104M567.5 337.104L602.5 395.103" stroke="black" style="stroke:black;stroke-opacity:1;" stroke-width="20" stroke-linecap="round"/>
</svg>
