<svg width="1024" height="1024" viewBox="0 0 1024 1024" fill="none" xmlns="http://www.w3.org/2000/svg">
<path d="M318.263 455.698L262.99 505.338C248.207 518.615 239.763 537.548 239.763 557.418V612.698C239.763 644.174 254.582 673.813 279.763 692.698L371.763 761.698L454.009 811.294C526.603 855.069 616.669 858.207 692.134 819.59L706.096 812.445C764.899 782.354 796.871 717.14 784.646 652.226L735.174 389.546C734.757 387.33 733.968 385.201 732.84 383.248L702.273 330.303C695.484 318.544 681.643 312.811 668.527 316.325L628.949 326.93M318.263 455.698L371.763 599.698M318.263 455.698L224.561 220.188C220.29 209.454 219.414 197.668 222.05 186.42C225.345 172.362 234.847 160.563 247.879 154.347L256.679 150.149C267.493 144.991 280.051 144.952 290.897 150.043L292.154 150.634C301.229 154.893 308.663 162 313.326 170.873L384.711 306.698M433 400L384.711 306.698M384.711 306.698L432.487 288.948L448.587 282.967C466.878 276.171 487.402 283.564 497.159 300.463L510.862 324.198M541.462 377.198L510.862 324.198M510.862 324.198L589.527 303.12C602.643 299.606 616.484 305.339 623.273 317.098L628.949 326.93M646.136 356.698L628.949 326.93" stroke="black" style="stroke:black;stroke-opacity:1;" stroke-width="20" stroke-linecap="round"/>
</svg>
