<svg width="1024" height="1024" viewBox="0 0 1024 1024" fill="none" xmlns="http://www.w3.org/2000/svg">
<path d="M729.159 90.5882C730.589 85.2535 727.423 79.7702 722.088 78.3407L635.155 55.047C629.82 53.6176 624.337 56.7835 622.907 62.1181C621.478 67.4528 624.644 72.9361 629.978 74.3656L707.252 95.0711L686.547 172.345C685.118 177.68 688.283 183.163 693.618 184.593C698.953 186.022 704.436 182.856 705.865 177.522L729.159 90.5882ZM539 192.212L544 200.872L724.5 96.6603L719.5 88L714.5 79.3397L534 183.551L539 192.212Z" fill="black" style="fill:black;fill-opacity:1;"/>
<path d="M87.3408 432.623C85.9114 437.957 89.0772 443.441 94.4119 444.87L181.345 468.164C186.68 469.593 192.163 466.427 193.593 461.093C195.022 455.758 191.856 450.275 186.522 448.845L109.248 428.14L129.953 350.866C131.382 345.531 128.217 340.048 122.882 338.618C117.547 337.189 112.064 340.355 110.635 345.689L87.3408 432.623ZM277.5 330.999L272.5 322.339L92.0001 426.551L97.0001 435.211L102 443.871L282.5 339.659L277.5 330.999Z" fill="black" style="fill:black;fill-opacity:1;"/>
<path d="M692.763 936.698L493.763 816.698L369.763 723.698C364.727 719.921 361.763 713.993 361.763 707.698V590.118C361.763 584.441 364.176 579.031 368.399 575.238L440.263 510.698M440.263 510.698L493.763 654.698M440.263 510.698L342.323 264.538C340.811 260.736 340.501 256.563 341.434 252.58L347.071 228.533C348.456 222.621 352.452 217.66 357.932 215.046L387.221 201.075C392.628 198.495 398.907 198.476 404.33 201.022L422.059 209.344C426.004 211.196 429.236 214.286 431.264 218.144L506.711 361.698M543.763 432.198L506.711 361.698M506.711 361.698L586.425 332.082C595.57 328.685 605.833 332.381 610.711 340.83L632.862 379.198M663.462 432.198L632.862 379.198M632.862 379.198L718.939 356.134C727.683 353.791 736.91 357.613 741.436 365.453L750.949 381.93M768.136 411.698L750.949 381.93M750.949 381.93L797.939 369.339C806.683 366.996 815.91 370.818 820.436 378.658L854.84 438.248C855.968 440.201 856.757 442.33 857.174 444.546L924.486 801.955C926.132 810.691 921.813 819.465 913.886 823.49L699.763 932.198" stroke="black" style="stroke:black;stroke-opacity:1;" stroke-width="16" stroke-linecap="round"/>
</svg>
