<svg width="1024" height="1024" viewBox="0 0 1024 1024" fill="none" xmlns="http://www.w3.org/2000/svg">
<path d="M318.263 475.198L246.399 539.738C242.176 543.531 239.763 548.941 239.763 554.618V644.698C239.763 668.305 250.877 690.534 269.763 704.698L371.763 781.198L481.648 847.461C537.057 880.873 605.801 883.268 663.401 853.793L694.116 838.075C760.023 804.349 795.857 731.257 782.155 658.501L735.174 409.046C734.757 406.83 733.968 404.701 732.84 402.748L698.436 343.158C693.91 335.318 684.683 331.496 675.939 333.839L628.949 346.43M318.263 475.198L371.763 619.198M318.263 475.198L222.647 234.877C219.622 227.274 219.001 218.927 220.868 210.961L221.733 207.274C225.228 192.361 235.309 179.843 249.134 173.248C264.725 165.811 282.828 165.755 298.464 173.095L306.139 176.698M421.763 396.698L384.711 326.198L306.139 176.698M541.462 396.698L510.862 343.698M510.862 343.698L480.263 290.698L396.901 146.311C393.766 140.881 389.16 136.448 383.613 133.523C369.844 126.262 353.473 125.845 339.352 132.396L337.498 133.257C322.224 140.342 311.128 154.146 307.491 170.586L306.139 176.698M510.862 343.698L581.374 324.805C599.299 320.002 618.215 327.837 627.493 343.908L628.949 346.43M646.136 376.198L628.949 346.43" stroke="black" style="stroke:black;stroke-opacity:1;" stroke-width="20" stroke-linecap="round"/>
</svg>
