<svg width="1024" height="1024" viewBox="0 0 1024 1024" fill="none" xmlns="http://www.w3.org/2000/svg">
<path d="M261.5 499C212.623 499 173 459.377 173 410.5C173 361.623 212.623 322 261.5 322C310.377 322 350 361.623 350 410.5C350 429.074 344.278 446.312 334.5 460.547" stroke="black" style="stroke:black;stroke-opacity:1;" stroke-width="10"/>
<path d="M762.5 296C811.377 296 851 256.377 851 207.5C851 158.623 811.377 119 762.5 119C713.623 119 674 158.623 674 207.5C674 224.138 678.592 239.704 686.577 253" stroke="black" style="stroke:black;stroke-opacity:1;" stroke-width="10"/>
<path d="M555.115 264.027C553.472 267.829 555.223 272.244 559.025 273.887L620.988 300.661C624.79 302.304 629.205 300.553 630.848 296.751C632.491 292.948 630.74 288.534 626.938 286.891L571.86 263.092L595.659 208.014C597.302 204.211 595.551 199.797 591.749 198.154C587.946 196.511 583.532 198.262 581.889 202.064L555.115 264.027ZM678 221.001L675.235 214.03L559.235 260.03L562 267.002L564.765 273.974L680.765 227.973L678 221.001Z" fill="black" style="fill:black;fill-opacity:1;"/>
<path d="M452.884 315.512C454.527 311.71 452.776 307.295 448.974 305.652L387.011 278.878C383.209 277.236 378.794 278.986 377.151 282.788C375.508 286.591 377.259 291.005 381.061 292.648L436.139 316.447L412.34 371.525C410.697 375.328 412.448 379.742 416.25 381.385C420.053 383.028 424.467 381.277 426.11 377.475L452.884 315.512ZM329.999 358.538L332.764 365.509L448.764 319.509L445.999 312.537L443.234 305.565L327.234 351.566L329.999 358.538Z" fill="black" style="fill:black;fill-opacity:1;"/>
<path d="M507.574 488.412L500.182 481.677L507.574 488.412ZM603.38 503.179C600.214 507.704 601.315 513.939 605.84 517.106C610.365 520.272 616.6 519.171 619.767 514.646L611.574 508.912L603.38 503.179ZM733.574 408.414L728.226 416.864L733.574 408.414ZM674.474 547.049C671.235 551.522 672.235 557.774 676.708 561.013C681.182 564.253 687.434 563.252 690.673 558.779L682.574 552.914L674.474 547.049ZM699.074 405.414L701.586 415.093L699.074 405.414ZM783.673 483.414L778.325 491.864V491.864L783.673 483.414ZM747.733 593.898C744.686 598.504 745.951 604.708 750.557 607.755C755.164 610.802 761.368 609.537 764.415 604.93L756.074 599.414L747.733 593.898ZM749.173 480.414L746.66 470.735V470.735L749.173 480.414ZM834.074 552.914L828.726 561.364V561.364L834.074 552.914ZM806.475 668.914L798.184 663.322V663.322L806.475 668.914ZM800.074 551.414L797.562 541.735H797.561L800.074 551.414ZM375.074 515.914L368.003 522.985V522.985L375.074 515.914ZM259.074 405.414L254.95 396.304L253.981 396.743L253.125 397.376L259.074 405.414ZM272.574 515.914L282.137 512.989L282.024 512.62L281.883 512.261L272.574 515.914ZM345 764.5L335.892 768.629L336.038 768.951L336.207 769.263L345 764.5ZM611.574 890.414L608.171 881.011L611.574 890.414ZM507.574 488.412L514.965 495.148C527.228 481.689 570.175 424.571 612.013 368.922C633.071 340.912 653.998 313.068 670.942 290.852C688.075 268.388 700.69 252.273 705.39 247.23L698.074 240.412L690.758 233.595C685.207 239.551 671.846 256.687 655.039 278.723C638.044 301.007 617.069 328.914 596.026 356.904C553.661 413.255 511.608 469.137 500.182 481.677L507.574 488.412ZM698.074 240.412L705.39 247.23C715.371 236.519 725.972 227.202 736.218 222.077C746.221 217.074 754.542 216.626 761.988 221.024L767.074 212.413L772.159 203.803C756.896 194.788 740.967 197.34 727.272 204.19C713.821 210.918 701.276 222.307 690.758 233.595L698.074 240.412ZM767.074 212.413L761.988 221.024C769.189 225.276 771.945 232.076 771.477 241.51C770.99 251.34 766.896 262.615 761.762 272.184L770.574 276.912L779.386 281.64C785.251 270.708 790.762 256.44 791.453 242.499C792.163 228.162 787.669 212.963 772.159 203.803L767.074 212.413ZM770.574 276.912L761.762 272.184C759.328 276.721 748.43 293.201 732.816 316.194C717.42 338.868 697.909 367.198 678.726 394.909C659.547 422.615 640.71 449.683 626.667 469.826C619.646 479.897 613.824 488.236 609.757 494.057C607.724 496.968 606.129 499.249 605.043 500.802C604.5 501.578 604.084 502.173 603.804 502.573C603.664 502.773 603.558 502.925 603.487 503.026C603.452 503.077 603.425 503.115 603.407 503.141C603.398 503.154 603.392 503.163 603.387 503.169C603.385 503.173 603.383 503.175 603.382 503.177C603.381 503.178 603.38 503.179 611.574 508.912C619.767 514.646 619.767 514.645 619.769 514.643C619.77 514.642 619.771 514.639 619.774 514.636C619.778 514.629 619.785 514.62 619.794 514.607C619.812 514.581 619.839 514.543 619.875 514.492C619.946 514.39 620.052 514.238 620.193 514.037C620.473 513.636 620.89 513.04 621.434 512.263C622.521 510.707 624.117 508.424 626.152 505.512C630.222 499.686 636.048 491.342 643.074 481.264C657.124 461.111 675.975 434.023 695.171 406.292C714.364 378.566 733.915 350.177 749.362 327.429C764.593 305 776.32 287.355 779.386 281.64L770.574 276.912ZM733.574 408.414L728.226 416.864C739.854 424.224 744.929 441.906 736.821 456.577L745.574 461.414L754.326 466.251C767.218 442.922 760.068 413.348 738.921 399.964L733.574 408.414ZM745.574 461.414L736.821 456.577C731.9 465.482 716.545 487.822 701.96 508.531C694.763 518.751 687.889 528.383 682.814 535.462C680.277 539.001 678.19 541.9 676.738 543.913C676.013 544.92 675.446 545.705 675.061 546.238C674.868 546.504 674.721 546.708 674.622 546.844C674.573 546.912 674.536 546.964 674.511 546.998C674.499 547.015 674.489 547.028 674.483 547.037C674.48 547.041 674.478 547.044 674.476 547.046C674.475 547.047 674.475 547.048 674.475 547.048C674.474 547.049 674.474 547.049 682.574 552.914C690.673 558.779 690.673 558.779 690.674 558.778C690.674 558.777 690.675 558.777 690.676 558.775C690.677 558.773 690.68 558.77 690.683 558.765C690.69 558.756 690.7 558.742 690.712 558.725C690.738 558.689 690.776 558.636 690.827 558.567C690.927 558.428 691.076 558.222 691.271 557.952C691.66 557.414 692.231 556.623 692.962 555.61C694.422 553.584 696.519 550.671 699.068 547.116C704.164 540.007 711.072 530.327 718.312 520.047C732.602 499.756 748.747 476.346 754.326 466.251L745.574 461.414ZM670.789 423.914C677.772 431.072 677.771 431.073 677.77 431.074C677.77 431.074 677.769 431.075 677.768 431.075C677.767 431.076 677.767 431.077 677.766 431.077C677.765 431.078 677.765 431.078 677.766 431.077C677.768 431.076 677.773 431.07 677.782 431.062C677.801 431.044 677.833 431.013 677.879 430.969C677.972 430.88 678.119 430.74 678.317 430.555C678.714 430.184 679.31 429.634 680.07 428.957C681.598 427.598 683.754 425.756 686.261 423.83C691.599 419.729 697.317 416.201 701.586 415.093L699.074 405.414L696.561 395.735C688.13 397.923 679.705 403.646 674.076 407.97C671.099 410.258 668.565 412.423 666.774 414.017C665.875 414.817 665.154 415.481 664.649 415.954C664.396 416.191 664.196 416.381 664.054 416.516C663.983 416.584 663.926 416.639 663.885 416.679C663.864 416.699 663.847 416.716 663.834 416.729C663.827 416.735 663.821 416.741 663.817 416.745C663.814 416.747 663.812 416.749 663.81 416.751C663.809 416.752 663.808 416.753 663.808 416.754C663.807 416.755 663.805 416.756 670.789 423.914ZM699.074 405.414L701.586 415.093C705.731 414.017 711.323 413.6 716.766 414.034C722.448 414.488 726.462 415.747 728.226 416.864L733.574 408.414L738.921 399.964C733.135 396.302 725.324 394.654 718.357 394.098C711.15 393.522 703.268 393.994 696.561 395.735L699.074 405.414ZM783.673 483.414L778.325 491.864C789.954 499.224 795.028 516.906 786.92 531.577L795.673 536.414L804.425 541.251C817.317 517.922 810.167 488.348 789.021 474.964L783.673 483.414ZM795.673 536.414L786.92 531.577C781.855 540.742 772.135 556.22 763.521 569.636C759.246 576.294 755.297 582.363 752.415 586.769C750.975 588.971 749.803 590.756 748.991 591.989C748.585 592.606 748.27 593.084 748.056 593.408C747.949 593.57 747.868 593.693 747.814 593.775C747.786 593.817 747.766 593.848 747.752 593.868C747.746 593.878 747.741 593.886 747.737 593.891C747.736 593.893 747.734 593.895 747.734 593.896C747.733 593.897 747.733 593.897 747.733 593.898C747.733 593.898 747.733 593.898 756.074 599.414C764.415 604.93 764.415 604.93 764.415 604.93C764.415 604.929 764.416 604.928 764.416 604.928C764.417 604.926 764.419 604.924 764.421 604.921C764.424 604.915 764.43 604.907 764.437 604.896C764.452 604.874 764.473 604.842 764.501 604.799C764.558 604.714 764.641 604.588 764.75 604.423C764.968 604.093 765.287 603.607 765.698 602.984C766.519 601.736 767.702 599.936 769.153 597.716C772.056 593.278 776.038 587.159 780.351 580.442C788.911 567.108 798.99 551.086 804.425 541.251L795.673 536.414ZM720.888 498.914C727.871 506.072 727.87 506.073 727.869 506.074C727.869 506.074 727.868 506.075 727.867 506.075C727.866 506.076 727.866 506.077 727.865 506.077C727.864 506.078 727.864 506.078 727.865 506.077C727.867 506.076 727.872 506.07 727.881 506.062C727.9 506.044 727.932 506.013 727.978 505.969C728.071 505.88 728.218 505.74 728.416 505.555C728.813 505.184 729.409 504.634 730.169 503.957C731.697 502.598 733.853 500.756 736.36 498.83C741.698 494.729 747.416 491.201 751.685 490.093L749.173 480.414L746.66 470.735C738.229 472.923 729.804 478.646 724.175 482.97C721.198 485.258 718.665 487.423 716.873 489.017C715.974 489.817 715.253 490.481 714.748 490.954C714.495 491.191 714.295 491.381 714.153 491.516C714.082 491.584 714.026 491.639 713.984 491.679C713.963 491.699 713.946 491.716 713.933 491.729C713.926 491.735 713.921 491.741 713.916 491.745C713.913 491.747 713.911 491.749 713.909 491.751C713.909 491.752 713.907 491.753 713.907 491.754C713.906 491.755 713.905 491.756 720.888 498.914ZM749.173 480.414L751.685 490.093C755.83 489.017 761.423 488.6 766.865 489.034C772.547 489.488 776.561 490.747 778.325 491.864L783.673 483.414L789.021 474.964C783.234 471.302 775.424 469.654 768.456 469.098C761.249 468.522 753.367 468.994 746.66 470.735L749.173 480.414ZM834.074 552.914L828.726 561.364C840.355 568.724 845.429 586.406 837.321 601.077L846.074 605.914L854.826 610.751C867.718 587.422 860.568 557.848 839.422 544.464L834.074 552.914ZM846.074 605.914L837.321 601.077C827.044 619.674 814.399 639.283 798.184 663.322L806.475 668.914L814.765 674.506C831.05 650.362 844.103 630.154 854.826 610.751L846.074 605.914ZM775.534 569.414C783.323 575.686 783.322 575.687 783.321 575.689C783.32 575.689 783.319 575.69 783.319 575.691C783.317 575.693 783.316 575.694 783.315 575.696C783.313 575.698 783.312 575.7 783.311 575.7C783.31 575.702 783.311 575.7 783.316 575.695C783.324 575.684 783.344 575.661 783.373 575.625C783.433 575.553 783.534 575.431 783.675 575.266C783.956 574.937 784.392 574.437 784.96 573.816C786.104 572.565 787.749 570.865 789.727 569.087C793.944 565.296 798.614 562.124 802.586 561.093L800.074 551.414L797.561 541.735C788.833 544 781.233 549.829 776.356 554.214C773.786 556.523 771.677 558.705 770.205 560.315C769.465 561.124 768.876 561.798 768.46 562.285C768.252 562.529 768.087 562.727 767.967 562.872C767.907 562.944 767.858 563.003 767.821 563.049C767.803 563.072 767.787 563.091 767.774 563.106C767.768 563.114 767.762 563.121 767.758 563.127C767.755 563.13 767.753 563.133 767.751 563.136C767.75 563.137 767.748 563.139 767.748 563.139C767.746 563.141 767.745 563.143 775.534 569.414ZM800.074 551.414L802.586 561.093C807.129 559.914 812.825 559.203 818.103 559.314C823.725 559.431 827.281 560.45 828.726 561.364L834.074 552.914L839.422 544.464C833.316 540.6 825.298 539.46 818.521 539.318C811.399 539.169 803.871 540.097 797.562 541.735L800.074 551.414ZM507.574 488.412L500.182 481.677C482.046 501.581 465.186 515.105 443.147 521.852L446.074 531.414L449.001 540.976C475.962 532.723 495.743 516.244 514.965 495.148L507.574 488.412ZM446.074 531.414L443.147 521.852C431.066 525.55 421.616 527.565 412.49 526.319C403.736 525.123 394.017 520.715 382.145 508.843L375.074 515.914L368.003 522.985C382.13 537.113 395.661 544.205 409.783 546.135C423.531 548.013 436.581 544.778 449.001 540.976L446.074 531.414ZM259.074 405.414L253.125 397.376C244.17 404.002 239.93 413.508 238.549 423.57C237.199 433.403 238.479 444.264 240.877 454.974C245.654 476.307 255.685 500.251 263.265 519.567L272.574 515.914L281.883 512.261C273.962 492.077 264.742 470.021 260.394 450.604C258.23 440.939 257.478 432.738 258.363 426.289C259.217 420.07 261.476 416.076 265.022 413.453L259.074 405.414ZM345 764.5L336.207 769.263C370.286 832.177 404.76 884.651 466.887 905.003L470 895.5L473.113 885.997C419.24 868.349 387.964 822.823 353.793 759.737L345 764.5ZM470 895.5L466.887 905.003C527.833 924.968 576.797 913.632 614.976 899.817L611.574 890.414L608.171 881.011C572.203 894.025 528.167 904.032 473.113 885.997L470 895.5ZM259.074 405.414L263.197 414.524C271.8 410.63 278.733 411.6 285.801 415.921C293.605 420.69 301.498 429.582 310.132 441.787C318.789 454.024 327.027 467.817 336.598 482.438C345.916 496.674 356.185 511.167 368.003 522.985L375.074 515.914L382.145 508.843C371.843 498.541 362.489 485.474 353.331 471.485C344.426 457.88 335.335 442.782 326.46 430.236C317.562 417.659 307.718 405.877 296.231 398.856C284.009 391.385 270.097 389.448 254.95 396.304L259.074 405.414ZM345 764.5L354.108 760.371C337.494 723.723 327.293 687.563 317.338 647.574C307.416 607.715 297.702 563.867 282.137 512.989L272.574 515.914L263.012 518.84C278.372 569.047 287.871 611.992 297.93 652.405C307.957 692.687 318.506 730.277 335.892 768.629L345 764.5ZM806.475 668.914L798.184 663.322C765.61 711.617 736.371 759.382 705.476 799.025C674.608 838.633 643.435 868.251 608.171 881.011L611.574 890.414L614.976 899.817C655.713 885.077 689.776 851.706 721.251 811.32C752.698 770.968 782.91 721.733 814.765 674.506L806.475 668.914Z" fill="black" style="fill:black;fill-opacity:1;"/>
</svg>
