<svg width="1024" height="1024" viewBox="0 0 1024 1024" fill="none" xmlns="http://www.w3.org/2000/svg">
<path d="M262.5 508C213.623 508 174 468.377 174 419.5C174 370.623 213.623 331 262.5 331C311.377 331 351 370.623 351 419.5C351 438.074 345.278 455.312 335.5 469.547" stroke="black" style="stroke:black;stroke-opacity:1;" stroke-width="10"/>
<path d="M763.5 305C812.377 305 852 265.377 852 216.5C852 167.623 812.377 128 763.5 128C714.623 128 675 167.623 675 216.5C675 233.138 679.592 248.704 687.577 262" stroke="black" style="stroke:black;stroke-opacity:1;" stroke-width="10"/>
<path d="M972.885 138.512C974.528 134.71 972.777 130.295 968.975 128.652L907.012 101.878C903.21 100.236 898.795 101.986 897.152 105.788C895.509 109.591 897.26 114.005 901.062 115.648L956.14 139.447L932.341 194.525C930.698 198.328 932.449 202.742 936.251 204.385C940.054 206.028 944.468 204.277 946.111 200.475L972.885 138.512ZM850 181.538L852.765 188.509L968.765 142.509L966 135.537L963.235 128.565L847.235 174.566L850 181.538Z" fill="black" style="fill:black;fill-opacity:1;"/>
<path d="M51.1152 480.562C49.4723 484.365 51.2228 488.779 55.0251 490.422L116.988 517.196C120.79 518.839 125.205 517.088 126.848 513.286C128.491 509.483 126.74 505.069 122.938 503.426L67.8597 479.627L91.6586 424.549C93.3016 420.747 91.5511 416.332 87.7488 414.689C83.9464 413.046 79.5321 414.797 77.8891 418.599L51.1152 480.562ZM174 437.537L171.235 430.565L55.2353 476.565L58 483.537L60.7647 490.509L176.765 444.508L174 437.537Z" fill="black" style="fill:black;fill-opacity:1;"/>
<path d="M509.302 496.623L501.91 489.888L509.302 496.623ZM605.109 511.39C601.942 515.915 603.044 522.15 607.569 525.316C612.094 528.483 618.329 527.382 621.495 522.857L613.302 517.123L605.109 511.39ZM735.302 416.625L729.954 425.075L735.302 416.625ZM676.203 555.26C672.964 559.733 673.964 565.985 678.437 569.224C682.91 572.464 689.162 571.463 692.402 566.99L684.302 561.125L676.203 555.26ZM700.802 413.625L703.314 423.304L700.802 413.625ZM785.401 491.625L780.053 500.075V500.075L785.401 491.625ZM749.461 602.109C746.415 606.715 747.679 612.919 752.286 615.966C756.892 619.012 763.096 617.748 766.143 613.141L757.802 607.625L749.461 602.109ZM750.901 488.625L748.389 478.946V478.946L750.901 488.625ZM835.802 561.125L830.454 569.575V569.575L835.802 561.125ZM808.203 677.125L799.913 671.533V671.533L808.203 677.125ZM801.802 559.625L799.29 549.946H799.29L801.802 559.625ZM376.802 524.125L369.731 531.196V531.196L376.802 524.125ZM260.802 413.625L256.679 404.515L255.709 404.954L254.854 405.586L260.802 413.625ZM274.303 524.125L283.865 521.199L283.752 520.831L283.611 520.472L274.303 524.125ZM346.729 772.711L337.621 776.84L337.767 777.162L337.936 777.474L346.729 772.711ZM613.302 898.625L609.9 889.222L613.302 898.625ZM509.302 496.623L516.694 503.358C528.957 489.9 571.904 432.782 613.741 377.133C634.799 349.123 655.727 321.279 672.671 299.063C689.803 276.599 702.418 260.484 707.118 255.441L699.802 248.623L692.486 241.806C686.936 247.762 673.574 264.898 656.768 286.934C639.773 309.218 618.798 337.124 597.755 365.114C555.389 421.466 513.336 477.348 501.91 489.888L509.302 496.623ZM699.802 248.623L707.118 255.441C717.099 244.729 727.7 235.413 737.947 230.288C747.949 225.285 756.271 224.837 763.717 229.235L768.802 220.624L773.888 212.014C758.624 202.999 742.696 205.551 729 212.401C715.549 219.128 703.005 230.518 692.486 241.806L699.802 248.623ZM768.802 220.624L763.717 229.235C770.917 233.487 773.673 240.286 773.206 249.721C772.719 259.551 768.625 270.826 763.491 280.395L772.302 285.123L781.114 289.851C786.98 278.919 792.491 264.651 793.181 250.71C793.891 236.373 789.397 221.174 773.888 212.014L768.802 220.624ZM772.302 285.123L763.491 280.395C761.057 284.932 750.158 301.412 734.545 324.405C719.148 347.079 699.637 375.409 680.455 403.12C661.276 430.826 642.439 457.894 628.396 478.037C621.375 488.108 615.552 496.447 611.485 502.268C609.452 505.179 607.858 507.46 606.772 509.013C606.229 509.789 605.813 510.384 605.533 510.784C605.393 510.984 605.287 511.136 605.216 511.237C605.18 511.288 605.154 511.326 605.136 511.352C605.127 511.365 605.12 511.374 605.116 511.38C605.113 511.384 605.112 511.386 605.111 511.388C605.109 511.389 605.109 511.39 613.302 517.123C621.495 522.857 621.496 522.856 621.497 522.854C621.498 522.853 621.5 522.85 621.502 522.847C621.507 522.84 621.514 522.831 621.523 522.818C621.541 522.792 621.567 522.754 621.603 522.703C621.674 522.601 621.781 522.449 621.921 522.248C622.202 521.847 622.618 521.251 623.162 520.474C624.25 518.918 625.846 516.635 627.881 513.723C631.95 507.897 637.777 499.553 644.802 489.475C658.853 469.322 677.703 442.234 696.899 414.503C716.092 386.777 735.644 358.388 751.091 335.64C766.322 313.211 778.048 295.566 781.114 289.851L772.302 285.123ZM735.302 416.625L729.954 425.075C741.583 432.435 746.658 450.117 738.55 464.788L747.302 469.625L756.055 474.462C768.947 451.133 761.797 421.559 740.65 408.175L735.302 416.625ZM747.302 469.625L738.55 464.788C733.628 473.693 718.274 496.033 703.689 516.742C696.491 526.962 689.618 536.594 684.542 543.673C682.005 547.212 679.919 550.111 678.467 552.124C677.741 553.131 677.174 553.916 676.789 554.449C676.597 554.715 676.45 554.919 676.351 555.055C676.301 555.123 676.264 555.175 676.239 555.209C676.227 555.226 676.218 555.239 676.212 555.248C676.209 555.252 676.206 555.255 676.205 555.257C676.204 555.258 676.203 555.259 676.203 555.259C676.203 555.26 676.203 555.26 684.302 561.125C692.402 566.99 692.402 566.99 692.402 566.989C692.403 566.988 692.403 566.987 692.404 566.986C692.406 566.984 692.409 566.98 692.412 566.976C692.418 566.967 692.428 566.953 692.441 566.936C692.467 566.9 692.505 566.847 692.555 566.778C692.656 566.639 692.805 566.433 692.999 566.163C693.389 565.625 693.96 564.834 694.69 563.821C696.151 561.795 698.248 558.882 700.796 555.327C705.893 548.218 712.801 538.538 720.041 528.258C734.331 507.967 750.476 484.557 756.055 474.462L747.302 469.625ZM672.517 432.125C679.5 439.283 679.499 439.284 679.498 439.285C679.498 439.285 679.497 439.286 679.497 439.286C679.496 439.287 679.495 439.288 679.495 439.288C679.494 439.289 679.494 439.289 679.495 439.288C679.496 439.287 679.502 439.281 679.511 439.273C679.529 439.255 679.562 439.224 679.608 439.179C679.7 439.091 679.848 438.951 680.046 438.765C680.442 438.394 681.038 437.845 681.799 437.168C683.326 435.809 685.483 433.967 687.989 432.041C693.328 427.94 699.045 424.412 703.314 423.304L700.802 413.625L698.29 403.946C689.858 406.134 681.433 411.857 675.804 416.181C672.827 418.469 670.294 420.633 668.503 422.228C667.604 423.028 666.883 423.692 666.377 424.165C666.124 424.402 665.924 424.592 665.783 424.727C665.712 424.795 665.655 424.85 665.613 424.89C665.593 424.91 665.576 424.927 665.562 424.94C665.556 424.946 665.55 424.951 665.545 424.956C665.543 424.958 665.541 424.96 665.539 424.962C665.538 424.963 665.537 424.964 665.536 424.965C665.535 424.966 665.534 424.967 672.517 432.125ZM700.802 413.625L703.314 423.304C707.46 422.228 713.052 421.811 718.495 422.245C724.177 422.699 728.19 423.958 729.954 425.075L735.302 416.625L740.65 408.175C734.864 404.513 727.053 402.864 720.086 402.308C712.879 401.733 704.996 402.205 698.29 403.946L700.802 413.625ZM785.401 491.625L780.053 500.075C791.682 507.435 796.757 525.117 788.649 539.788L797.401 544.625L806.154 549.462C819.046 526.133 811.896 496.559 790.749 483.175L785.401 491.625ZM797.401 544.625L788.649 539.788C783.584 548.953 773.863 564.431 765.249 577.847C760.975 584.505 757.025 590.574 754.144 594.979C752.704 597.182 751.531 598.967 750.72 600.2C750.314 600.817 749.998 601.295 749.785 601.619C749.678 601.781 749.596 601.904 749.542 601.986C749.515 602.027 749.494 602.058 749.481 602.079C749.474 602.089 749.469 602.097 749.466 602.102C749.464 602.104 749.463 602.106 749.462 602.107C749.462 602.108 749.462 602.108 749.461 602.109C749.461 602.109 749.461 602.109 757.802 607.625C766.143 613.141 766.143 613.141 766.144 613.14C766.144 613.14 766.144 613.139 766.145 613.139C766.146 613.137 766.147 613.135 766.149 613.132C766.153 613.126 766.158 613.118 766.166 613.107C766.18 613.085 766.202 613.053 766.23 613.01C766.286 612.925 766.369 612.799 766.478 612.633C766.696 612.303 767.016 611.818 767.426 611.195C768.247 609.947 769.43 608.147 770.882 605.927C773.785 601.488 777.766 595.37 782.079 588.653C790.64 575.319 800.719 559.297 806.154 549.462L797.401 544.625ZM722.616 507.125C729.599 514.283 729.598 514.284 729.597 514.285C729.597 514.285 729.596 514.286 729.596 514.286C729.595 514.287 729.594 514.288 729.594 514.288C729.593 514.289 729.593 514.289 729.594 514.288C729.595 514.287 729.601 514.281 729.61 514.273C729.628 514.255 729.661 514.224 729.707 514.179C729.799 514.091 729.947 513.951 730.145 513.765C730.541 513.395 731.137 512.845 731.898 512.168C733.425 510.809 735.582 508.967 738.088 507.041C743.427 502.94 749.144 499.412 753.413 498.304L750.901 488.625L748.389 478.946C739.957 481.134 731.532 486.857 725.904 491.181C722.926 493.469 720.393 495.633 718.602 497.228C717.703 498.028 716.982 498.692 716.476 499.165C716.223 499.402 716.024 499.592 715.882 499.727C715.811 499.795 715.754 499.85 715.712 499.89C715.692 499.91 715.675 499.927 715.661 499.94C715.655 499.946 715.649 499.951 715.644 499.956C715.642 499.958 715.64 499.96 715.638 499.962C715.637 499.963 715.636 499.964 715.635 499.965C715.634 499.966 715.633 499.967 722.616 507.125ZM750.901 488.625L753.413 498.304C757.559 497.228 763.151 496.811 768.594 497.245C774.276 497.699 778.289 498.958 780.053 500.075L785.401 491.625L790.749 483.175C784.963 479.513 777.152 477.864 770.185 477.308C762.978 476.733 755.095 477.205 748.389 478.946L750.901 488.625ZM835.802 561.125L830.454 569.575C842.083 576.935 847.158 594.617 839.05 609.288L847.802 614.125L856.555 618.962C869.447 595.633 862.297 566.059 841.15 552.675L835.802 561.125ZM847.802 614.125L839.05 609.288C828.773 627.885 816.128 647.493 799.913 671.533L808.203 677.125L816.494 682.717C832.778 658.573 845.832 638.365 856.555 618.962L847.802 614.125ZM777.263 577.625C785.052 583.897 785.05 583.898 785.049 583.899C785.049 583.9 785.048 583.901 785.047 583.902C785.046 583.904 785.045 583.905 785.044 583.906C785.042 583.909 785.04 583.911 785.04 583.911C785.038 583.913 785.04 583.911 785.044 583.906C785.053 583.895 785.072 583.872 785.102 583.836C785.162 583.764 785.263 583.642 785.403 583.477C785.685 583.148 786.12 582.648 786.689 582.026C787.833 580.776 789.477 579.076 791.455 577.298C795.673 573.507 800.342 570.335 804.315 569.304L801.802 559.625L799.29 549.946C790.561 552.211 782.961 558.04 778.084 562.424C775.515 564.734 773.406 566.916 771.933 568.526C771.193 569.334 770.604 570.009 770.189 570.496C769.981 570.74 769.815 570.938 769.695 571.082C769.635 571.155 769.587 571.214 769.55 571.26C769.531 571.282 769.516 571.302 769.503 571.317C769.497 571.325 769.491 571.332 769.486 571.338C769.484 571.341 769.481 571.344 769.479 571.346C769.478 571.348 769.477 571.35 769.476 571.35C769.475 571.352 769.474 571.353 777.263 577.625ZM801.802 559.625L804.315 569.304C808.857 568.125 814.554 567.414 819.831 567.525C825.453 567.642 829.01 568.661 830.454 569.575L835.802 561.125L841.15 552.675C835.044 548.811 827.027 547.671 820.25 547.529C813.127 547.38 805.599 548.308 799.29 549.946L801.802 559.625ZM509.302 496.623L501.91 489.888C483.775 509.792 466.914 523.316 444.875 530.063L447.802 539.625L450.729 549.187C477.69 540.934 497.471 524.455 516.694 503.358L509.302 496.623ZM447.802 539.625L444.875 530.063C432.795 533.761 423.345 535.776 414.218 534.53C405.465 533.334 395.745 528.926 383.873 517.054L376.802 524.125L369.731 531.196C383.859 545.324 397.39 552.416 411.511 554.345C425.259 556.224 438.31 552.989 450.729 549.187L447.802 539.625ZM260.802 413.625L254.854 405.586C245.899 412.213 241.658 421.719 240.277 431.781C238.928 441.614 240.207 452.475 242.606 463.185C247.383 484.518 257.413 508.462 264.994 527.778L274.303 524.125L283.611 520.472C275.691 500.288 266.47 478.232 262.122 458.815C259.958 449.15 259.207 440.949 260.092 434.5C260.945 428.281 263.205 424.287 266.75 421.664L260.802 413.625ZM346.729 772.711L337.936 777.474C372.014 840.388 406.488 892.862 468.615 913.214L471.729 903.711L474.842 894.208C420.969 876.56 389.693 831.034 355.521 767.948L346.729 772.711ZM471.729 903.711L468.615 913.214C529.561 933.179 578.526 921.843 616.705 908.028L613.302 898.625L609.9 889.222C573.931 902.236 529.896 912.243 474.842 894.208L471.729 903.711ZM260.802 413.625L264.926 422.735C273.528 418.841 280.461 419.811 287.53 424.132C295.333 428.901 303.226 437.793 311.861 449.998C320.518 462.235 328.756 476.028 338.326 490.649C347.645 504.885 357.913 519.378 369.731 531.196L376.802 524.125L383.873 517.054C373.571 506.752 364.217 493.685 355.06 479.695C346.155 466.091 337.064 450.993 328.188 438.447C319.29 425.87 309.447 414.088 297.96 407.067C285.738 399.596 271.826 397.659 256.679 404.515L260.802 413.625ZM346.729 772.711L355.836 768.582C339.222 731.934 329.021 695.774 319.067 655.785C309.145 615.926 299.431 572.078 283.865 521.199L274.303 524.125L264.74 527.051C280.1 577.258 289.599 620.203 299.659 660.616C309.686 700.897 320.235 738.488 337.621 776.84L346.729 772.711ZM808.203 677.125L799.913 671.533C767.338 719.828 738.1 767.593 707.204 807.236C676.336 846.844 645.164 876.462 609.9 889.222L613.302 898.625L616.705 908.028C657.441 893.288 691.504 859.917 722.979 819.531C754.427 779.179 784.639 729.944 816.494 682.717L808.203 677.125Z" fill="black" style="fill:black;fill-opacity:1;"/>
</svg>
