<svg width="1024" height="1024" viewBox="0 0 1024 1024" fill="none" xmlns="http://www.w3.org/2000/svg">
<path d="M426.263 526.198L354.399 590.738C350.176 594.531 347.763 599.941 347.763 605.618V695.698C347.763 719.305 358.877 741.534 377.763 755.698L479.763 832.198L589.648 898.461C645.057 931.873 713.801 934.268 771.401 904.793L802.116 889.075C868.023 855.349 903.857 782.257 890.155 709.501L843.174 460.046C842.757 457.83 841.968 455.701 840.84 453.748L806.436 394.158C801.91 386.318 792.683 382.496 783.939 384.839L736.949 397.43M426.263 526.198L479.763 670.198M426.263 526.198L330.647 285.877C327.622 278.274 327.001 269.927 328.868 261.961L329.733 258.274C333.228 243.361 343.309 230.843 357.134 224.248C372.725 216.811 390.828 216.755 406.464 224.095L414.139 227.698M529.763 447.698L492.711 377.198L414.139 227.698M649.462 447.698L618.862 394.698M618.862 394.698L588.263 341.698L504.901 197.311C501.766 191.881 497.16 187.448 491.613 184.523C477.844 177.262 461.473 176.845 447.352 183.396L445.498 184.257C430.224 191.342 419.128 205.146 415.491 221.586L414.139 227.698M618.862 394.698L704.939 371.634C713.683 369.291 722.91 373.113 727.436 380.953L736.949 397.43M754.136 427.198L736.949 397.43" stroke="black" style="stroke:black;stroke-opacity:1;" stroke-width="19" stroke-linecap="round"/>
<path d="M743.159 74.5882C744.589 69.2535 741.423 63.7702 736.088 62.3407L649.155 39.047C643.82 37.6176 638.337 40.7835 636.907 46.1181C635.478 51.4528 638.644 56.9361 643.978 58.3656L721.252 79.0711L700.547 156.345C699.118 161.68 702.283 167.163 707.618 168.593C712.953 170.022 718.436 166.856 719.865 161.522L743.159 74.5882ZM553 176.212L558 184.872L738.5 80.6603L733.5 72L728.5 63.3397L548 167.551L553 176.212Z" fill="black" style="fill:black;fill-opacity:1;"/>
<path d="M101.341 416.623C99.9114 421.957 103.077 427.441 108.412 428.87L195.345 452.164C200.68 453.593 206.163 450.427 207.593 445.093C209.022 439.758 205.856 434.275 200.522 432.845L123.248 412.14L143.953 334.866C145.382 329.531 142.217 324.048 136.882 322.618C131.547 321.189 126.064 324.355 124.635 329.689L101.341 416.623ZM291.5 314.999L286.5 306.339L106 410.551L111 419.211L116 427.871L296.5 323.659L291.5 314.999Z" fill="black" style="fill:black;fill-opacity:1;"/>
</svg>
