<svg width="1024" height="1024" viewBox="0 0 1024 1024" fill="none" xmlns="http://www.w3.org/2000/svg">
<path d="M223.837 497.91C208.837 501.91 196.596 522.922 190.336 544.41C176.5 591.91 173 622.91 173 675.41C173 727.91 177.526 760.91 197 797.91C209.368 821.41 249.5 813.41 262.836 826.41C276.905 840.124 285.336 846.41 306.836 859.41C328.336 872.41 413.007 889.148 480.837 892.91C574.416 898.099 629 909.91 697 875.41C722.374 862.536 760.836 842.91 771.337 813.41C777.043 797.38 773.447 785.484 768.974 777.962C766.659 774.069 768.834 767.163 773.233 766.083C778.732 764.733 784.939 762.73 789.336 759.91C810.555 746.3 812.436 724.61 811.836 699.41C811.646 691.417 808.996 681.224 806.705 673.812C804.974 668.212 807.531 662.025 812.664 659.196C821.2 654.493 833.379 646.713 839.336 637.91C855.204 614.461 856.076 588.244 839.336 565.41C835.873 560.685 830.243 556.109 824.977 552.442C818.78 548.127 817.447 538.904 822.412 533.215C828.566 526.165 835.789 516.835 839.336 508.41C849.944 483.215 840.5 442.41 824.5 426.41C808.5 410.41 766.5 407.91 736.5 407.91C706.458 407.91 584.337 415.91 567.837 418.41C551.337 420.91 527.887 411.705 525 391.41C520.163 357.41 524.5 243.41 517.837 209.91C512.963 185.41 506.758 137.876 475 128.91C443.242 119.943 417.089 120.253 401 155.91C382.5 196.91 377.756 376.41 367.5 407.91C355.453 444.91 325 464.91 295.5 477.91C271.361 488.548 238.837 493.91 223.837 497.91Z" stroke="black" style="stroke:black;stroke-opacity:1;" stroke-width="20" stroke-linecap="round"/>
</svg>
