<svg width="1024" height="1024" viewBox="0 0 1024 1024" fill="none" xmlns="http://www.w3.org/2000/svg">
<path d="M697.5 462.5L685.438 426.824C672.545 388.69 630.955 368.467 593 381.876M674.55 220.293C674.55 220.293 720.595 218.865 743.5 234C768.445 250.483 784.333 298.764 784.333 298.764C784.333 298.764 840.068 413.894 839 492.5C838.285 545.151 830.564 575.416 811.5 624.5C801.744 649.618 787.395 677.064 775.8 697.734C763.919 718.913 759.952 743.827 766.04 767.335C770.829 785.824 760.704 804.91 742.71 811.314L553.715 878.578C513.498 892.891 468.63 880.097 442.01 846.726L425.755 826.349C420.276 819.48 413.947 813.41 407.182 807.802C380.563 785.734 308.674 720.205 266 624.5C222.218 526.31 184 352 184 352M674.55 220.293L664.034 189.485C651.246 152.02 610.801 131.707 573.113 143.821C557.805 148.741 544.564 158.604 535.467 171.862L534 174M674.55 220.293L560.05 259.529M534 174L560.05 259.529M534 174C527.1 153.024 504.486 141.629 483.521 148.565L426.182 167.537C404.63 174.667 393.074 198.048 400.5 219.5M560.05 259.529L517.65 277.217C488.314 289.455 472.997 321.908 482.196 352.335C492.433 386.197 528.896 404.63 562.234 392.796L593 381.876M593 381.876C600.159 402.596 589.04 425.177 568.252 432.135L518.525 448.78C500.246 454.899 480.276 446.409 472 429M400.5 219.5L472 429M400.5 219.5C384.724 211.307 366.051 210.846 349.89 218.251L314.047 234.672C292.997 244.316 279.5 265.346 279.5 288.5M472 429C468.209 445.365 457.161 459.108 441.993 466.327L429.33 472.354C404.725 484.064 375.275 476.756 359 454.901M279.5 288.5L359 454.901M279.5 288.5C263.267 283.359 245.616 285.344 230.93 293.961L210.305 306.064C194.01 315.626 184 333.106 184 352M359 454.901L358.601 456.053C353.374 471.122 342.915 483.816 329.124 491.828C295.234 511.516 251.755 497.838 235.241 462.293L184 352" stroke="black" style="stroke:black;stroke-opacity:1;" stroke-width="20" stroke-linecap="round"/>
</svg>
